<svg xmlns="http://www.w3.org/2000/svg" xmlns:xlink="http://www.w3.org/1999/xlink" viewBox="0 0 189.83 228.92"><defs><linearGradient id="a" x1="187.03" y1="455.75" x2="2.11" y2="270.83" gradientTransform="matrix(1, 0, 0, -1, 0, 457.26)" gradientUnits="userSpaceOnUse"><stop offset="0" stop-color="#ee2f46"/><stop offset="0.7" stop-color="#0a3f62"/></linearGradient></defs><path d="M132.18,94.32,188.56,11.5a7.35,7.35,0,0,0-1.95-10.22A8.08,8.08,0,0,0,181.88,0a6.14,6.14,0,0,1-.62,0H7.25A7.24,7.24,0,0,0,0,7.25V181.32a7.25,7.25,0,0,0,7.25,7.26H181.32c3.1,0,4.06-1.18,4.36-1.45,2.93-2.58,4-6.73,1.76-10ZM14.51,174.07V14.51H168.7L117.21,90.15a7.35,7.35,0,0,0,0,8.22l50.53,75.7Z" fill="url(#a)"/><path d="M43.18,215.58l1.73-1.89,1.73-1.95,1.57-1.83c.5-.58.92-1.09,1.27-1.51h6.74q-2,2.31-3.94,4.42t-4.2,4.34a24.52,24.52,0,0,1,2.36,2.46c.81.95,1.6,1.93,2.36,2.95s1.46,2,2.09,3,1.16,1.94,1.59,2.78H50q-.6-1-1.38-2.19t-1.65-2.4c-.58-.8-1.2-1.57-1.84-2.31a16.52,16.52,0,0,0-1.92-1.86v8.76H37.52V199.81l5.66-.92Z" fill="#19598c"/><path d="M76.86,218.35a12.92,12.92,0,0,1-.69,4.32,9.29,9.29,0,0,1-2,3.34,9,9,0,0,1-3.09,2.15,11.06,11.06,0,0,1-8.06,0,8.94,8.94,0,0,1-3.1-2.15,10,10,0,0,1-2-3.34,12.47,12.47,0,0,1-.72-4.32,12,12,0,0,1,.74-4.29A9.91,9.91,0,0,1,60,210.75a9.41,9.41,0,0,1,3.12-2.13,10,10,0,0,1,3.93-.76,10.21,10.21,0,0,1,4,.76,9,9,0,0,1,3.1,2.13,9.85,9.85,0,0,1,2,3.31A12.22,12.22,0,0,1,76.86,218.35Zm-5.78,0a7.08,7.08,0,0,0-1-4.12,3.42,3.42,0,0,0-3-1.51,3.46,3.46,0,0,0-3,1.51A7,7,0,0,0,63,218.35a7.18,7.18,0,0,0,1.07,4.16,3.43,3.43,0,0,0,3,1.54,3.37,3.37,0,0,0,3-1.54A7.26,7.26,0,0,0,71.08,218.35Z" fill="#19598c"/><path d="M81.23,209.08a32.7,32.7,0,0,1,8.51-1.14,11.76,11.76,0,0,1,4.24.66,6.44,6.44,0,0,1,2.68,1.89,7.33,7.33,0,0,1,1.41,2.88,15.39,15.39,0,0,1,.41,3.73v11.29H92.82V217.78a7.7,7.7,0,0,0-.72-3.88,3,3,0,0,0-2.7-1.14c-.41,0-.84,0-1.3.06s-.86.08-1.21.13v15.44H81.22V209.08Z" fill="#19598c"/><path d="M109.28,215.58l1.72-1.89c.6-.66,1.17-1.31,1.73-1.95l1.58-1.83,1.27-1.51h6.73c-1.34,1.54-2.66,3-3.93,4.42s-2.69,2.85-4.2,4.34a24.5,24.5,0,0,1,2.35,2.46c.81.95,1.6,1.93,2.36,2.95s1.46,2,2.09,3,1.17,1.94,1.6,2.78h-6.51c-.41-.66-.87-1.39-1.39-2.19s-1.07-1.6-1.65-2.4-1.19-1.57-1.84-2.31a15.77,15.77,0,0,0-1.92-1.86v8.76h-5.66V199.81l5.66-.92v16.69Z" fill="#19598c"/><path d="M123.3,218.54a12.11,12.11,0,0,1,.82-4.65,9.92,9.92,0,0,1,2.15-3.33,8.8,8.8,0,0,1,3.06-2,9.46,9.46,0,0,1,3.55-.69,8.83,8.83,0,0,1,6.73,2.61c1.65,1.73,2.47,4.29,2.47,7.65,0,.34,0,.7,0,1.09s0,.74-.07,1H129.12a3.76,3.76,0,0,0,1.63,2.78,6.63,6.63,0,0,0,3.88,1,16.36,16.36,0,0,0,3.06-.28,11.54,11.54,0,0,0,2.46-.7l.76,4.6a8.49,8.49,0,0,1-1.22.45,15.63,15.63,0,0,1-1.69.4c-.62.12-1.29.21-2,.29s-1.41.11-2.13.11a12.61,12.61,0,0,1-4.69-.8,9.23,9.23,0,0,1-3.31-2.18,8.71,8.71,0,0,1-1.93-3.29A12.74,12.74,0,0,1,123.3,218.54Zm13.3-2.16a5.63,5.63,0,0,0-.24-1.41,3.47,3.47,0,0,0-1.75-2.09,3.54,3.54,0,0,0-1.65-.34,3.9,3.9,0,0,0-1.64.32,3.52,3.52,0,0,0-1.84,2.09,7.31,7.31,0,0,0-.36,1.43Z" fill="#19598c"/><path d="M158.5,213.41c-.51-.12-1.11-.26-1.79-.39a11.06,11.06,0,0,0-2.21-.21,10.75,10.75,0,0,0-1.27.09,6.63,6.63,0,0,0-1.12.21v15.28h-5.66V209.46a32.64,32.64,0,0,1,3.59-1,21.08,21.08,0,0,1,4.61-.47c.31,0,.68,0,1.11.05s.86.09,1.29.15.86.14,1.29.23a5.79,5.79,0,0,1,1.1.33Z" fill="#19598c"/></svg>